<svg xmlns="http://www.w3.org/2000/svg" viewBox="0 0 213.9 246"><defs><style>.cls-1{fill:#f4f4f4;}</style></defs><title>Asset 2</title><g id="Layer_2" data-name="Layer 2"><g id="Layer_1-2" data-name="Layer 1"><path class="cls-1" d="M136.8,245.7H113.7L98.1,189.6H38.7c-5.1,18.3-10.5,38.1-15.3,56.1H0L57,38.1,68.4,0,79.8,38.1ZM93.3,171.9,68.4,81.6c-8.4,30.6-16.5,59.1-24.9,90.3Z"/><path class="cls-1" d="M193.5,246v-4.5c-4.8,3.3-9.9,4.5-16.5,4.5-16.2,0-31.8-12.9-31.8-29.7v-1.8c.6-16.2,15.9-29.1,31.8-29.1,6.6,0,11.7,1.2,16.5,4.5-.6-8.1-2.1-16.5-12.6-16.8-6.9-.9-13.2,2.1-15,8.7H148.5c3.3-21,16.2-27.6,32.1-27.3,20.4.3,32.7,11.4,32.7,42l.6,49.5Zm0-28.8v-3.9c-1.8-6.6-8.1-12.9-14.7-12.9-8.1,0-14.1,5.7-14.7,14.4C163.8,233.1,189.3,235.2,193.5,217.2Z"/></g></g></svg>