<svg xmlns="http://www.w3.org/2000/svg" viewBox="0 0 577.05 235.09"><defs><style>.cls-1{fill:#fff;}.cls-2,.cls-3,.cls-4,.cls-6{fill:none;stroke-miterlimit:10;}.cls-2,.cls-3{stroke:#344152;}.cls-2{stroke-linecap:square;stroke-dasharray:1 5;}.cls-4,.cls-6{stroke:#c73636;}.cls-4{stroke-width:0.99px;}.cls-5{fill:#344152;}</style></defs><title>Asset 4</title><g id="Layer_2" data-name="Layer 2"><g id="Layer_1-2" data-name="Layer 1"><rect class="cls-1" width="577.05" height="235.09"/><line class="cls-2" x1="118.49" y1="128.99" x2="553.53" y2="128.99"/><line class="cls-2" x1="118.49" y1="73.2" x2="553.53" y2="73.2"/><line class="cls-3" x1="118.49" y1="85.8" x2="553.53" y2="85.8"/><line class="cls-3" x1="118.49" y1="162.77" x2="553.53" y2="162.77"/><path d="M196.3,162.37h-8.47l-5.72-20.57H160.33c-1.87,6.71-3.85,14-5.61,20.57h-8.58L167,86.24l4.18-14,4.18,14Zm-16-27.06-9.13-33.11c-3.08,11.22-6.05,21.67-9.13,33.11Z"/><path d="M220.28,130.24c2.64,1.87,4.84,6.27,5.61,10.23h-7.48c-1.21-2.42-3.19-4.07-5.39-4.07-3.08,0-5.61,2.75-5.72,6.16v19.91H200l.22-33h7v.66a11.79,11.79,0,0,1,6.38-1.87,12.45,12.45,0,0,1,6.6,1.87Z"/><path d="M255.26,154.45c-1.87,5.28-7.59,9.13-12.43,9.13-6.27,0-13.31-5.06-13.31-11.44V139.6c.22-6.27,7.26-11,13.31-11,4.95,0,10.45,3.85,12.21,9.24h-6.93a6.2,6.2,0,0,0-4.62-2.53c-3.08,0-6.49,2.75-6.71,6v9.13c0,3.3,3.63,6,6.71,6a6.37,6.37,0,0,0,4.4-2.09Z"/><path d="M278.58,162.37v-2.64c.55-17.38-.11-17.82-.11-18.15-.77-2.53-3-5-5.5-5-3,0-5.5,2.53-5.72,6.05v19.8H260.1l.44-75.57h6.71v43.78a10.93,10.93,0,0,1,6.38-1.87,13.11,13.11,0,0,1,6.49,1.87v-.11c3,1.87,5.06,5.94,5.61,9.68v22.11Z"/><path d="M290.9,125.07a3.94,3.94,0,0,1,4-4,3.88,3.88,0,0,1,4,4,3.94,3.94,0,0,1-4,4A4,4,0,0,1,290.9,125.07Zm.33,5.94h7.26v31.46h-7.15Z"/><path d="M324.56,154.56v7.7a13.16,13.16,0,0,1-3.85.88h-1.43a14.88,14.88,0,0,1-6.71-1.87,12.32,12.32,0,0,1-5.61-9.68v-4.51c0-2.2-.11-3.74-.11-10.67h-4.62v-6.82h4.62v-7.26h7.37v7.26h9.57v6.82h-9.57v10c0,3.08.11,4.07.11,4.84.66,2.75,2.86,5.06,5.61,5.06a5.11,5.11,0,0,0,2.31-.55Z"/><path d="M335.56,146.2v4.29c0,3.3,3.3,6,6.38,6a6.17,6.17,0,0,0,4.4-2.09h7.37c-1.87,5.28-7.59,9.13-12.43,9.13-6.27,0-11.88-5.06-11.88-11.44V139.6c.88-6.16,5.83-11,11.88-11h1.43c6.05,0,10.12,4.62,11.33,11l.77,6.6ZM340.29,120h-6.93L344,107.7H351Zm-4.51,21.12h12.1c-.55-1.65-1.54-4.18-3.19-5a4.42,4.42,0,0,0-2.75-.88,7,7,0,0,0-3.3,1C337.21,137.18,336.22,139.49,335.78,141.14Z"/><path d="M385.71,154.45c-1.87,5.28-7.59,9.13-12.43,9.13-6.27,0-13.31-5.06-13.31-11.44V139.6c.22-6.27,7.26-11,13.31-11,4.95,0,10.45,3.85,12.21,9.24h-6.93a6.2,6.2,0,0,0-4.62-2.53c-3.08,0-6.49,2.75-6.71,6v9.13c0,3.3,3.63,6,6.71,6a6.37,6.37,0,0,0,4.4-2.09Z"/><path d="M413.1,154.56v7.7a13.16,13.16,0,0,1-3.85.88h-1.43a14.88,14.88,0,0,1-6.71-1.87,12.32,12.32,0,0,1-5.61-9.68v-4.51c0-2.2-.11-3.74-.11-10.67h-4.62v-6.82h4.62v-7.26h7.37v7.26h9.57v6.82h-9.57v10c0,3.08.11,4.07.11,4.84.66,2.75,2.86,5.06,5.61,5.06a5.11,5.11,0,0,0,2.31-.55Z"/><path d="M442.58,130.69l-.11,31.79h-6.71v-1.1a11.83,11.83,0,0,1-6.16,1.76,13.82,13.82,0,0,1-6.49-1.87,11.82,11.82,0,0,1-5.28-8.14V130.69h7v20.57a2.23,2.23,0,0,1,.11.55c.77,2.42,2.86,4.73,5.28,4.73a5.62,5.62,0,0,0,5.39-5.72V130.69Zm-6-13.31-5.83-6.71-5.83,6.71h-5.5l8.58-9.79h5.5l8.47,9.79Z"/><path d="M470.3,130.24c2.64,1.87,4.84,6.27,5.61,10.23h-7.48c-1.21-2.42-3.19-4.07-5.39-4.07-3.08,0-5.61,2.75-5.72,6.16v19.91h-7.26l.22-33h7v.66a11.79,11.79,0,0,1,6.38-1.87,12.45,12.45,0,0,1,6.6,1.87Z"/><path d="M487.13,146.2v4.29c0,3.3,3.3,6,6.38,6a6.17,6.17,0,0,0,4.4-2.09h7.37c-1.87,5.28-7.59,9.13-12.43,9.13-6.27,0-11.88-5.06-11.88-11.44V139.6c.88-6.16,5.83-11,11.88-11h1.43c6.05,0,10.12,4.62,11.33,11l.77,6.6Zm-.77-30.36a4.13,4.13,0,0,1,0-8.25,4.13,4.13,0,0,1,0,8.25Zm1,25.3h12.1c-.55-1.65-1.54-4.18-3.19-5a4.42,4.42,0,0,0-2.75-.88,7,7,0,0,0-3.3,1C488.78,137.18,487.79,139.49,487.35,141.14Zm17.93-29.37a4.18,4.18,0,0,1-4.29,4.07,4.13,4.13,0,0,1,0-8.25A4.2,4.2,0,0,1,505.28,111.77Z"/><path d="M522,157.42a5,5,0,0,1-5.06,5.06,5.12,5.12,0,0,1-5.06-5.06,5,5,0,0,1,5.06-5.06A5,5,0,0,1,522,157.42ZM512.65,93h8.47l-1.32,52.91h-5.72Z"/><line class="cls-4" x1="171.23" y1="68.21" x2="197.26" y2="162.77"/><polyline class="cls-4" points="144.99 162.77 171.24 68.22 171.22 55.15"/><path class="cls-5" d="M131.85,40h7.09v1h-6V44.4h5.35v1H133v3.43H139v1h-7.16Z"/><path class="cls-5" d="M143.86,45.43,146,42.6h1.2l-2.75,3.54,2.86,3.7h-1.25l-2.24-3-2.26,3h-1.2l2.83-3.68L140.5,42.6h1.23Z"/><path class="cls-5" d="M149.46,47.93V43.56h-1v-1h1V40.42h1.08V42.6h2.3v1h-2.3v4.23A1.07,1.07,0,0,0,151.76,49a2.27,2.27,0,0,0,1.05-.25v.92a2.72,2.72,0,0,1-1.3.31A1.84,1.84,0,0,1,149.46,47.93Z"/><path class="cls-5" d="M154.74,42.6h1.08V44.5a3.1,3.1,0,0,1,3-2v1.16h-.08c-1.58,0-2.87,1.13-2.87,3.32v2.89h-1.08Z"/><path class="cls-5" d="M159.51,47.74v0c0-1.53,1.26-2.34,3.1-2.34a7.67,7.67,0,0,1,2.23.31v-.25c0-1.3-.8-2-2.16-2a5.05,5.05,0,0,0-2.2.53l-.32-.88a6,6,0,0,1,2.63-.6,3.18,3.18,0,0,1,2.34.8,2.86,2.86,0,0,1,.74,2.12v4.43h-1V48.75A3.17,3.17,0,0,1,162.22,50,2.44,2.44,0,0,1,159.51,47.74Zm5.34-.56v-.7a7.58,7.58,0,0,0-2.13-.31c-1.36,0-2.12.59-2.12,1.5v0c0,.91.84,1.44,1.82,1.44A2.19,2.19,0,0,0,164.85,47.19Z"/><path class="cls-5" d="M167.87,45.07h3.89V46.2h-3.89Z"/><path class="cls-5" d="M174.26,47.93V43.56h-1v-1h1V40.42h1.08V42.6h2.3v1h-2.3v4.23A1.07,1.07,0,0,0,176.55,49a2.27,2.27,0,0,0,1.05-.25v.92a2.72,2.72,0,0,1-1.3.31A1.84,1.84,0,0,1,174.26,47.93Z"/><path class="cls-5" d="M179,47.74v0c0-1.53,1.26-2.34,3.1-2.34a7.67,7.67,0,0,1,2.23.31v-.25c0-1.3-.8-2-2.16-2A5.05,5.05,0,0,0,180,44l-.32-.88a6,6,0,0,1,2.63-.6,3.18,3.18,0,0,1,2.34.8,2.86,2.86,0,0,1,.74,2.12v4.43h-1V48.75A3.17,3.17,0,0,1,181.69,50,2.44,2.44,0,0,1,179,47.74Zm5.34-.56v-.7a7.58,7.58,0,0,0-2.13-.31c-1.36,0-2.12.59-2.12,1.5v0c0,.91.84,1.44,1.82,1.44A2.19,2.19,0,0,0,184.32,47.19Z"/><path class="cls-5" d="M187.74,39.62h1.08V49.85h-1.08Z"/><path class="cls-5" d="M191.42,39.62h1.08V49.85h-1.08Z"/><path class="cls-5" d="M198.66,47.74v0c0-1.53,1.26-2.34,3.1-2.34a7.67,7.67,0,0,1,2.23.31v-.25c0-1.3-.8-2-2.16-2a5.05,5.05,0,0,0-2.2.53l-.32-.88a6,6,0,0,1,2.63-.6,3.18,3.18,0,0,1,2.34.8,2.86,2.86,0,0,1,.74,2.12v4.43h-1V48.75A3.17,3.17,0,0,1,201.36,50,2.44,2.44,0,0,1,198.66,47.74Zm5.34-.56v-.7a7.58,7.58,0,0,0-2.13-.31c-1.36,0-2.12.59-2.12,1.5v0c0,.91.84,1.44,1.82,1.44A2.19,2.19,0,0,0,204,47.19Z"/><path class="cls-5" d="M207.41,39.62h1.08V49.85h-1.08Z"/><path class="cls-5" d="M211.37,47.93V43.56h-1v-1h1V40.42h1.08V42.6h2.3v1h-2.3v4.23A1.07,1.07,0,0,0,213.67,49a2.27,2.27,0,0,0,1.05-.25v.92a2.72,2.72,0,0,1-1.3.31A1.84,1.84,0,0,1,211.37,47.93Z"/><path class="cls-5" d="M216,46.25v0a3.57,3.57,0,0,1,3.47-3.77c2.14,0,3.38,1.71,3.38,3.82a2.88,2.88,0,0,1,0,.35h-5.74a2.53,2.53,0,0,0,2.55,2.45,3,3,0,0,0,2.28-1l.67.6a3.74,3.74,0,0,1-3,1.36A3.6,3.6,0,0,1,216,46.25Zm5.76-.42a2.38,2.38,0,0,0-2.31-2.46,2.5,2.5,0,0,0-2.35,2.46Z"/><path class="cls-5" d="M224.72,42.6h1.08V44.5a3.1,3.1,0,0,1,3-2v1.16h-.08c-1.58,0-2.87,1.13-2.87,3.32v2.89h-1.08Z"/><path class="cls-5" d="M230.39,42.6h1.08v1.26A2.74,2.74,0,0,1,234,42.45a2.64,2.64,0,0,1,2.77,2.9v4.5h-1.08V45.62a1.93,1.93,0,0,0-2-2.18,2.13,2.13,0,0,0-2.17,2.27v4.15h-1.08Z"/><path class="cls-5" d="M238.47,47.74v0c0-1.53,1.26-2.34,3.1-2.34a7.67,7.67,0,0,1,2.23.31v-.25c0-1.3-.8-2-2.16-2a5.05,5.05,0,0,0-2.2.53l-.32-.88a6,6,0,0,1,2.63-.6,3.18,3.18,0,0,1,2.34.8,2.86,2.86,0,0,1,.74,2.12v4.43h-1V48.75A3.17,3.17,0,0,1,241.17,50,2.44,2.44,0,0,1,238.47,47.74Zm5.34-.56v-.7a7.58,7.58,0,0,0-2.13-.31c-1.36,0-2.12.59-2.12,1.5v0c0,.91.84,1.44,1.82,1.44A2.19,2.19,0,0,0,243.81,47.19Z"/><path class="cls-5" d="M247.43,47.93V43.56h-1v-1h1V40.42h1.08V42.6h2.3v1h-2.3v4.23A1.07,1.07,0,0,0,249.73,49a2.27,2.27,0,0,0,1.05-.25v.92a2.72,2.72,0,0,1-1.3.31A1.84,1.84,0,0,1,247.43,47.93Z"/><path class="cls-5" d="M252.05,46.25v0a3.57,3.57,0,0,1,3.47-3.77c2.14,0,3.38,1.71,3.38,3.82a2.88,2.88,0,0,1,0,.35h-5.74a2.53,2.53,0,0,0,2.55,2.45,3,3,0,0,0,2.28-1l.67.6a3.74,3.74,0,0,1-3,1.36A3.6,3.6,0,0,1,252.05,46.25Zm5.76-.42a2.38,2.38,0,0,0-2.31-2.46,2.5,2.5,0,0,0-2.35,2.46Z"/><path class="cls-5" d="M260.19,48.92l.55-.77a4.23,4.23,0,0,0,2.51.92c.87,0,1.5-.45,1.5-1.15v0c0-.73-.85-1-1.81-1.27-1.13-.32-2.4-.71-2.4-2v0A2.19,2.19,0,0,1,263,42.48a5,5,0,0,1,2.61.8l-.49.81a4.09,4.09,0,0,0-2.14-.7c-.85,0-1.4.45-1.4,1v0c0,.69.9,1,1.86,1.25,1.12.34,2.33.77,2.33,2.07v0c0,1.37-1.13,2.17-2.58,2.17A5,5,0,0,1,260.19,48.92Z"/><path class="cls-5" d="M252.48,179.1l.69-.81a4.67,4.67,0,0,0,3.36,1.39c1.32,0,2.19-.7,2.19-1.67v0c0-.91-.49-1.43-2.55-1.86-2.25-.49-3.29-1.22-3.29-2.83v0c0-1.54,1.36-2.68,3.22-2.68a5.12,5.12,0,0,1,3.45,1.2l-.64.85a4.31,4.31,0,0,0-2.83-1.06c-1.27,0-2.09.7-2.09,1.58v0c0,.92.5,1.44,2.66,1.91s3.19,1.27,3.19,2.77v0c0,1.68-1.4,2.77-3.35,2.77A5.74,5.74,0,0,1,252.48,179.1Z"/><path class="cls-5" d="M262,170.3h1.08v10.23H262Z"/><path class="cls-5" d="M265,178.42v0c0-1.53,1.26-2.34,3.1-2.34a7.67,7.67,0,0,1,2.23.31v-.25c0-1.3-.8-2-2.16-2a5.05,5.05,0,0,0-2.2.53l-.32-.88a6,6,0,0,1,2.63-.6,3.18,3.18,0,0,1,2.34.8,2.86,2.86,0,0,1,.74,2.12v4.43h-1v-1.09a3.17,3.17,0,0,1-2.62,1.25A2.44,2.44,0,0,1,265,178.42Zm5.34-.56v-.7a7.58,7.58,0,0,0-2.13-.31c-1.36,0-2.12.59-2.12,1.5v0c0,.91.84,1.44,1.82,1.44A2.19,2.19,0,0,0,270.37,177.86Z"/><path class="cls-5" d="M273.69,173.28h1.08v1.26a2.74,2.74,0,0,1,2.48-1.41A2.64,2.64,0,0,1,280,176v4.5h-1.08v-4.23a1.93,1.93,0,0,0-2-2.18,2.13,2.13,0,0,0-2.17,2.27v4.15h-1.08Z"/><path class="cls-5" d="M282.69,178.61v-4.37h-1v-1h1V171.1h1.08v2.18h2.3v1h-2.3v4.23a1.07,1.07,0,0,0,1.22,1.21,2.27,2.27,0,0,0,1.05-.25v.92a2.72,2.72,0,0,1-1.3.31A1.84,1.84,0,0,1,282.69,178.61Z"/><path class="cls-5" d="M287.31,176.92v0a3.57,3.57,0,0,1,3.47-3.77c2.14,0,3.38,1.71,3.38,3.82a2.88,2.88,0,0,1,0,.35H288.4a2.53,2.53,0,0,0,2.55,2.45,3,3,0,0,0,2.28-1l.67.6a3.74,3.74,0,0,1-3,1.36A3.6,3.6,0,0,1,287.31,176.92Zm5.76-.42a2.38,2.38,0,0,0-2.31-2.46,2.5,2.5,0,0,0-2.35,2.46Z"/><path class="cls-5" d="M295.63,176.92v0a3.55,3.55,0,0,1,3.46-3.77,3.27,3.27,0,0,1,2.77,1.54V170.3h1.08v10.23h-1.08v-1.46a3.25,3.25,0,0,1-2.77,1.61A3.53,3.53,0,0,1,295.63,176.92Zm6.28,0v0a2.69,2.69,0,0,0-2.62-2.79,2.56,2.56,0,0,0-2.55,2.79v0a2.62,2.62,0,0,0,2.55,2.8A2.7,2.7,0,0,0,301.9,176.91Z"/><path class="cls-5" d="M308.83,173.28H310l2.44,6,2.45-6h1.16l-3.15,7.3h-1Z"/><path class="cls-5" d="M316.89,176.92v0a3.57,3.57,0,0,1,3.47-3.77c2.14,0,3.38,1.71,3.38,3.82a2.88,2.88,0,0,1,0,.35H318a2.53,2.53,0,0,0,2.55,2.45,3,3,0,0,0,2.28-1l.67.6a3.74,3.74,0,0,1-3,1.36A3.6,3.6,0,0,1,316.89,176.92Zm5.76-.42a2.38,2.38,0,0,0-2.31-2.46A2.5,2.5,0,0,0,318,176.5Z"/><path class="cls-5" d="M325.63,173.28h1.08v1.89a3.1,3.1,0,0,1,3-2v1.16h-.08c-1.58,0-2.87,1.13-2.87,3.32v2.89h-1.08Z"/><path class="cls-5" d="M331.68,178.61v-4.37h-1v-1h1V171.1h1.08v2.18h2.3v1h-2.3v4.23a1.07,1.07,0,0,0,1.22,1.21,2.27,2.27,0,0,0,1.05-.25v.92a2.72,2.72,0,0,1-1.3.31A1.84,1.84,0,0,1,331.68,178.61Z"/><path class="cls-5" d="M337,170.51h1.23v1.19H337Zm.07,2.77h1.08v7.24h-1.08Z"/><path class="cls-5" d="M340.19,176.94v0a3.77,3.77,0,0,1,6.61-2.49l-.71.76a2.92,2.92,0,0,0-2.2-1.09,2.67,2.67,0,0,0-2.59,2.8v0a2.71,2.71,0,0,0,2.66,2.82,3,3,0,0,0,2.21-1.08l.69.64a3.75,3.75,0,0,1-6.67-2.35Z"/><path class="cls-5" d="M348.08,178.42v0c0-1.53,1.26-2.34,3.1-2.34a7.67,7.67,0,0,1,2.23.31v-.25c0-1.3-.8-2-2.16-2a5.05,5.05,0,0,0-2.2.53l-.32-.88a6,6,0,0,1,2.63-.6,3.18,3.18,0,0,1,2.34.8,2.86,2.86,0,0,1,.74,2.12v4.43h-1v-1.09a3.17,3.17,0,0,1-2.62,1.25A2.44,2.44,0,0,1,348.08,178.42Zm5.34-.56v-.7a7.58,7.58,0,0,0-2.13-.31c-1.36,0-2.12.59-2.12,1.5v0c0,.91.84,1.44,1.82,1.44A2.19,2.19,0,0,0,353.42,177.86Z"/><path class="cls-5" d="M356.83,170.3h1.08v10.23h-1.08Z"/><path class="cls-5" d="M359.81,179.6l.55-.77a4.23,4.23,0,0,0,2.51.92c.87,0,1.5-.45,1.5-1.15v0c0-.73-.85-1-1.81-1.27-1.13-.32-2.4-.71-2.4-2v0a2.19,2.19,0,0,1,2.47-2.07,5,5,0,0,1,2.61.8l-.49.81a4.09,4.09,0,0,0-2.14-.7c-.85,0-1.4.45-1.4,1v0c0,.69.9,1,1.86,1.25,1.12.34,2.33.77,2.33,2.07v0c0,1.37-1.13,2.17-2.58,2.17A5,5,0,0,1,359.81,179.6Z"/><path class="cls-5" d="M18.68,135.24h1.11V144H25.3v1H18.68Z"/><path class="cls-5" d="M26.57,141.46v0a3.78,3.78,0,0,1,7.55,0v0a3.76,3.76,0,0,1-3.8,3.78A3.71,3.71,0,0,1,26.57,141.46Zm6.44,0v0a2.74,2.74,0,0,0-2.69-2.83,2.67,2.67,0,0,0-2.65,2.8v0a2.72,2.72,0,0,0,2.68,2.82A2.67,2.67,0,0,0,33,141.46Z"/><path class="cls-5" d="M35.1,137.8h1.15l1.91,5.81,1.95-5.84H41l2,5.84,1.9-5.81H46l-2.55,7.3H42.5l-1.95-5.71-2,5.71h-1Z"/><path class="cls-5" d="M54.79,140.63l2.16-2.83h1.2l-2.75,3.54,2.86,3.7H57l-2.24-3-2.26,3h-1.2l2.83-3.68-2.72-3.56h1.23Z"/><path class="cls-5" d="M59.29,140.27h3.89v1.13H59.29Z"/><path class="cls-5" d="M65.3,134.82h1.08v4.24a2.74,2.74,0,0,1,2.48-1.41,2.64,2.64,0,0,1,2.77,2.9V145H70.55v-4.23a1.93,1.93,0,0,0-2-2.18,2.13,2.13,0,0,0-2.17,2.27V145H65.3Z"/><path class="cls-5" d="M73.47,141.45v0a3.57,3.57,0,0,1,3.47-3.77c2.14,0,3.38,1.71,3.38,3.82a2.88,2.88,0,0,1,0,.35H74.57a2.53,2.53,0,0,0,2.55,2.45,3,3,0,0,0,2.28-1l.67.6a3.74,3.74,0,0,1-3,1.36A3.6,3.6,0,0,1,73.47,141.45Zm5.76-.42a2.38,2.38,0,0,0-2.31-2.46A2.5,2.5,0,0,0,74.57,141Z"/><path class="cls-5" d="M82.24,135h1.23v1.19H82.24Zm.07,2.77h1.08V145H82.31Z"/><path class="cls-5" d="M85.81,146.31l.49-.84a4.63,4.63,0,0,0,2.79.92,2.38,2.38,0,0,0,2.63-2.58V143a3.43,3.43,0,0,1-2.84,1.53,3.35,3.35,0,0,1-3.4-3.39v0a3.43,3.43,0,0,1,6.23-2v-1.3h1.08v6a3.49,3.49,0,0,1-.92,2.56,3.81,3.81,0,0,1-2.76,1A5.68,5.68,0,0,1,85.81,146.31Zm5.94-5.22v0a2.54,2.54,0,0,0-2.66-2.45A2.39,2.39,0,0,0,86.58,141v0a2.45,2.45,0,0,0,2.51,2.47A2.56,2.56,0,0,0,91.75,141.08Z"/><path class="cls-5" d="M95.19,134.82h1.08v4.24a2.74,2.74,0,0,1,2.48-1.41,2.64,2.64,0,0,1,2.77,2.9V145h-1.08v-4.23a1.93,1.93,0,0,0-2-2.18,2.13,2.13,0,0,0-2.17,2.27V145H95.19Z"/><path class="cls-5" d="M104.19,143.13v-4.37h-1v-1h1v-2.18h1.08v2.18h2.3v1h-2.3V143a1.07,1.07,0,0,0,1.22,1.21,2.27,2.27,0,0,0,1.05-.25v.92a2.72,2.72,0,0,1-1.3.31A1.84,1.84,0,0,1,104.19,143.13Z"/><path class="cls-5" d="M422.78,177.13h1L430,185v-7.86h1.08v9.81h-.88l-6.33-8v8h-1.08Z"/><path class="cls-5" d="M433.11,184.84v0c0-1.53,1.26-2.34,3.1-2.34a7.67,7.67,0,0,1,2.23.31v-.25c0-1.3-.8-2-2.16-2a5.05,5.05,0,0,0-2.2.53l-.32-.88a6,6,0,0,1,2.63-.6,3.18,3.18,0,0,1,2.34.8,2.86,2.86,0,0,1,.74,2.12v4.43h-1v-1.09a3.17,3.17,0,0,1-2.62,1.25A2.44,2.44,0,0,1,433.11,184.84Zm5.34-.56v-.7a7.54,7.54,0,0,0-2.13-.31c-1.36,0-2.12.59-2.12,1.5v0c0,.91.84,1.44,1.82,1.44A2.19,2.19,0,0,0,438.45,184.28Z"/><path class="cls-5" d="M441.77,179.7h1.08v1.89a3.1,3.1,0,0,1,3-2v1.16h-.08c-1.58,0-2.87,1.13-2.87,3.32v2.89h-1.08Z"/><path class="cls-5" d="M447.44,179.7h1.08v1.89a3.1,3.1,0,0,1,3-2v1.16h-.08c-1.58,0-2.87,1.13-2.87,3.32v2.89h-1.08Z"/><path class="cls-5" d="M452.35,183.35v0a3.78,3.78,0,0,1,7.55,0v0a3.76,3.76,0,0,1-3.8,3.78A3.71,3.71,0,0,1,452.35,183.35Zm6.44,0v0a2.74,2.74,0,0,0-2.69-2.83,2.67,2.67,0,0,0-2.65,2.8v0a2.72,2.72,0,0,0,2.68,2.82A2.67,2.67,0,0,0,458.79,183.35Z"/><path class="cls-5" d="M460.88,179.7H462l1.91,5.81,1.95-5.84h.9l2,5.84,1.9-5.81h1.12l-2.55,7.3h-.94l-1.95-5.71-2,5.71h-1Z"/><path class="cls-5" d="M477.84,176.71h1.08v10.23h-1.08Z"/><path class="cls-5" d="M481,183.34v0a3.57,3.57,0,0,1,3.47-3.77c2.14,0,3.38,1.71,3.38,3.82a2.88,2.88,0,0,1,0,.35h-5.74a2.53,2.53,0,0,0,2.55,2.45,3,3,0,0,0,2.28-1l.67.6a3.74,3.74,0,0,1-3,1.36A3.6,3.6,0,0,1,481,183.34Zm5.76-.42a2.38,2.38,0,0,0-2.31-2.46,2.5,2.5,0,0,0-2.35,2.46Z"/><path class="cls-5" d="M490.09,185v-4.37h-1v-1h1v-2.18h1.08v2.18h2.3v1h-2.3v4.23a1.07,1.07,0,0,0,1.22,1.21,2.27,2.27,0,0,0,1.05-.25v.92a2.72,2.72,0,0,1-1.3.31A1.84,1.84,0,0,1,490.09,185Z"/><path class="cls-5" d="M495.75,185v-4.37h-1v-1h1v-2.18h1.08v2.18h2.3v1h-2.3v4.23a1.07,1.07,0,0,0,1.22,1.21,2.27,2.27,0,0,0,1.05-.25v.92a2.72,2.72,0,0,1-1.3.31A1.84,1.84,0,0,1,495.75,185Z"/><path class="cls-5" d="M500.37,183.34v0a3.57,3.57,0,0,1,3.47-3.77c2.14,0,3.38,1.71,3.38,3.82a2.88,2.88,0,0,1,0,.35h-5.74a2.53,2.53,0,0,0,2.55,2.45,3,3,0,0,0,2.28-1l.67.6a3.74,3.74,0,0,1-3,1.36A3.6,3.6,0,0,1,500.37,183.34Zm5.76-.42a2.38,2.38,0,0,0-2.31-2.46,2.5,2.5,0,0,0-2.35,2.46Z"/><path class="cls-5" d="M509.11,179.7h1.08v1.89a3.1,3.1,0,0,1,3-2v1.16h-.08c-1.58,0-2.87,1.13-2.87,3.32v2.89h-1.08Z"/><path class="cls-5" d="M515.18,180.65h-1v-.94h1v-.63a2.56,2.56,0,0,1,.63-1.86,2.13,2.13,0,0,1,1.55-.56,3.28,3.28,0,0,1,1.19.18v.94a3.59,3.59,0,0,0-1.05-.18c-.84,0-1.26.5-1.26,1.54v.59h2.3v.92h-2.28v6.29h-1.08Z"/><path class="cls-5" d="M519.32,183.35v0a3.78,3.78,0,0,1,7.55,0v0a3.76,3.76,0,0,1-3.8,3.78A3.71,3.71,0,0,1,519.32,183.35Zm6.44,0v0a2.74,2.74,0,0,0-2.69-2.83,2.67,2.67,0,0,0-2.65,2.8v0a2.72,2.72,0,0,0,2.68,2.82A2.67,2.67,0,0,0,525.77,183.35Z"/><path class="cls-5" d="M528.82,179.7h1.08v1.89a3.1,3.1,0,0,1,3-2v1.16h-.08c-1.58,0-2.87,1.13-2.87,3.32v2.89h-1.08Z"/><path class="cls-5" d="M534.49,179.7h1.08v1.22a2.65,2.65,0,0,1,2.34-1.37,2.46,2.46,0,0,1,2.33,1.44,2.89,2.89,0,0,1,2.55-1.44,2.6,2.6,0,0,1,2.69,2.91v4.48h-1.08v-4.23c0-1.4-.7-2.18-1.88-2.18a2,2,0,0,0-2,2.24v4.17h-1.08v-4.26c0-1.36-.71-2.16-1.86-2.16a2.1,2.1,0,0,0-2,2.28v4.13h-1.08Z"/><path class="cls-5" d="M547.2,186l.55-.77a4.23,4.23,0,0,0,2.51.92c.87,0,1.5-.45,1.5-1.15v0c0-.73-.85-1-1.81-1.27-1.13-.32-2.39-.71-2.39-2v0a2.19,2.19,0,0,1,2.46-2.07,5,5,0,0,1,2.61.8l-.49.81a4.09,4.09,0,0,0-2.14-.7c-.85,0-1.4.45-1.4,1v0c0,.69.9,1,1.86,1.25,1.12.34,2.33.77,2.33,2.07v0c0,1.37-1.13,2.17-2.58,2.17A5,5,0,0,1,547.2,186Z"/><circle class="cls-6" cx="128.18" cy="128.82" r="4.67"/><circle class="cls-6" cx="128.18" cy="162.53" r="4.67"/><line class="cls-6" x1="128.18" y1="133.49" x2="128.18" y2="157.86"/><line class="cls-6" x1="128.18" y1="141.2" x2="110.1" y2="141.2"/><circle class="cls-6" cx="438.89" cy="143.12" r="4.67"/><circle class="cls-6" cx="421.4" cy="143.12" r="4.67"/><line class="cls-6" x1="434.22" y1="143.12" x2="426.07" y2="143.12"/><line class="cls-6" x1="430.14" y1="175.56" x2="430.14" y2="143.12"/><line class="cls-6" x1="259.42" y1="83.59" x2="258.06" y2="166.2"/></g></g></svg>