<svg xmlns="http://www.w3.org/2000/svg" viewBox="0 0 558.8 205.09"><defs><style>.cls-1{fill:#f4f4f4;}</style></defs><title>Asset 3</title><g id="Layer_2" data-name="Layer 2"><g id="Layer_1-2" data-name="Layer 1"><path class="cls-1" d="M65.23,6.6,65.45,77H57l.33-70.4H24.42L24.64,77H16.17L16.5,6.6H0V.11H81.62V6.6Z"/><path class="cls-1" d="M103.07.22h7.81c6.49,21.12,13,43,19.58,64.13,2.2-5.28,2.64-6.16,4.62-11.11l3.85-10.56,3.85,10.45c1.65,3.85,3.19,7.81,4.84,11.77L167.2,0h13.53l16.5,60.28L213.84,0h8.58l-21,76.89h-8.25L173.47,4.4,152,77H144.1L139,63.58l-5,13.64L125.95,77h.11Z"/><path class="cls-1" d="M303.6,6.6l.22,70.4h-8.47l.33-70.4H279.62L267.41,39l.11,10.56L267.63,77H259l.11-27.39V39L244.64.11h8.47l10.23,27.06L273.57.11H320V6.6Z"/><path class="cls-1" d="M341.77.11h46.42l10.23,27.06L408.65.11h8.47L402.6,39V49.61L402.71,77h-8.58l.11-27.39L394.35,39,382.14,6.6H366.08l.33,70.4h-8.47l.22-70.4H341.77Z"/><path class="cls-1" d="M535.92,77l-8.14.22-4.95-13.64L517.77,77h-7.92L488.4,4.4,468.71,76.89h-8.25L439.45,0H448l16.61,60.28L481.14,0h13.53l19.58,64.9c1.65-4,3.19-7.92,4.84-11.77l3.85-10.45,3.85,10.56c2,4.95,2.42,5.83,4.62,11.11C538,43.23,544.5,21.34,551,.22h7.81L535.81,77Z"/><path class="cls-1" d="M34.65,158.45h8.58v6.93H34.54c0,8.69.11,18.15.11,26.73H27.28V165.38H14c0,8.69.11,18.15.11,26.73H6.71V165.38H1v-6.93H6.71c0-8.8.22-17.16.22-26,.11-9.13,9.13-16.39,17.38-16.39v6.6a10.45,10.45,0,0,0-10.23,10v25.74h13.2c0-8.8.22-17.16.22-26,.11-9.13,9.13-16.39,17.38-16.39v6.6a10.45,10.45,0,0,0-10.23,10Z"/><path class="cls-1" d="M99.88,158.12v33.77H92.73l-.11-26.73H84c0,8.69.11,18.15.11,26.73H76.78V165.16H71.06v-6.93h5.72c0-8.8.22-17.16.22-26,.11-9.24,9.13-16.39,17.38-16.39v6.6a10.45,10.45,0,0,0-10.23,10v25.74h8.47v-.11Zm-3.63-10.89a3.88,3.88,0,0,1,4,4,3.94,3.94,0,0,1-4,4,4,4,0,0,1-4-4A3.94,3.94,0,0,1,96.25,147.23Z"/><path class="cls-1" d="M161.92,192.11H155.1l.44-69.41c-6.16,0-13.31,2.42-13.75,10v25.74h8.58v6.93h-8.69c0,8.69.11,18.15.11,26.73h-7.37V165.38H128.7v-6.93h5.72c0-8.8.11-17.16.22-26,0-13.53,12.65-16.39,20.9-16.39h6.38Z"/><path class="cls-1" d="M240.79,191.89h-7.15v-2.75c.55-17.38-.11-17.82-.11-18.15-.77-2.53-3-5-5.5-5-3,0-5.5,2.53-5.72,6v19.8h-7.15l.44-69.19c-6.16,0-13.31,2.42-13.75,10v25.74h8.58v6.93h-8.69c0,8.69.11,18.15.11,26.73h-7.37V165.38h-5.72v-6.93h5.72c0-8.8.22-17.16.22-26,0-13.64,12.87-16.17,21.12-16.17h6.49V160.1a10.93,10.93,0,0,1,6.38-1.87,13.12,13.12,0,0,1,6.49,1.87V160c3,1.87,5.06,5.94,5.61,9.68Z"/><path class="cls-1" d="M299.64,192.11h-6.82l.44-69.41c-6.16,0-13.31,2.42-13.75,10v25.74h8.58v6.93H279.4c0,8.69.11,18.15.11,26.73h-7.37V165.38h-5.72v-6.93h5.72c0-8.8.11-17.16.22-26,0-13.53,12.65-16.39,20.9-16.39h6.38Z"/><path class="cls-1" d="M375.43,191.23h.11l-3.3,11.11-4.84-10.89-4.95-13-5.06,12.87-4.62,11.22-3.3-11.66h.11l-22.88-76h7.59l19.58,64.9c1.65-4,3.19-7.92,4.84-11.77l3.85-10.45,3.85,10.56c2,5,2.42,5.83,4.62,11.11,6.6-21.12,13.09-43,19.58-64.13h7.81Z"/><path class="cls-1" d="M451.44,191.12l-4.07,14-4.18-14-21-76.12h8.58l16.61,60.28L463.87,115h8.47Z"/><path class="cls-1" d="M540.53,134.91,527,168.57h.11L523,180,519,168.57h.11c-5.83-14.74-7.7-19.25-13.64-34v57.31h-8.36l.66-76.89h8.47L523,157.57c5.61-14.08,11.33-28.6,16.83-42.57h8.36l.77,76.89h-8.47Z"/></g></g></svg>